<mxfile host="app.diagrams.net" modified="2024-02-28T08:29:42.927Z" agent="Mozilla/5.0 (Windows NT 10.0; Win64; x64) AppleWebKit/537.36 (KHTML, like Gecko) Chrome/120.0.0.0 Safari/537.36" etag="qdd4r5k3dgR5ZJBG6Rwz" version="23.1.7" type="github">
  <diagram name="Page-1" id="PdRy0qo1fnbqRZpK4AMG">
    <mxGraphModel dx="880" dy="434" grid="1" gridSize="10" guides="1" tooltips="1" connect="1" arrows="1" fold="1" page="1" pageScale="1" pageWidth="827" pageHeight="1169" math="0" shadow="0">
      <root>
        <mxCell id="0" />
        <mxCell id="1" parent="0" />
        <mxCell id="T2G4cAbRXpR7lpNc8CU2-30" style="edgeStyle=none;rounded=0;orthogonalLoop=1;jettySize=auto;html=1;exitX=1;exitY=0.5;exitDx=0;exitDy=0;entryX=0;entryY=0.5;entryDx=0;entryDy=0;endArrow=none;endFill=0;startArrow=ERone;startFill=0;" edge="1" parent="1" source="T2G4cAbRXpR7lpNc8CU2-1" target="T2G4cAbRXpR7lpNc8CU2-26">
          <mxGeometry relative="1" as="geometry" />
        </mxCell>
        <mxCell id="T2G4cAbRXpR7lpNc8CU2-1" value="Pelanggan" style="whiteSpace=wrap;html=1;align=center;" vertex="1" parent="1">
          <mxGeometry x="180" y="100" width="100" height="40" as="geometry" />
        </mxCell>
        <mxCell id="T2G4cAbRXpR7lpNc8CU2-2" value="Pakaian" style="whiteSpace=wrap;html=1;align=center;" vertex="1" parent="1">
          <mxGeometry x="500" y="100" width="100" height="40" as="geometry" />
        </mxCell>
        <mxCell id="T2G4cAbRXpR7lpNc8CU2-3" value="Nota" style="whiteSpace=wrap;html=1;align=center;" vertex="1" parent="1">
          <mxGeometry x="180" y="270" width="100" height="40" as="geometry" />
        </mxCell>
        <mxCell id="T2G4cAbRXpR7lpNc8CU2-20" style="edgeStyle=none;rounded=0;orthogonalLoop=1;jettySize=auto;html=1;exitX=1;exitY=0.5;exitDx=0;exitDy=0;endArrow=none;endFill=0;" edge="1" parent="1" source="T2G4cAbRXpR7lpNc8CU2-4" target="T2G4cAbRXpR7lpNc8CU2-1">
          <mxGeometry relative="1" as="geometry" />
        </mxCell>
        <mxCell id="T2G4cAbRXpR7lpNc8CU2-4" value="No. Pelanggan" style="ellipse;whiteSpace=wrap;html=1;align=center;fontStyle=4" vertex="1" parent="1">
          <mxGeometry x="50" y="40" width="100" height="40" as="geometry" />
        </mxCell>
        <mxCell id="T2G4cAbRXpR7lpNc8CU2-36" style="edgeStyle=none;rounded=0;orthogonalLoop=1;jettySize=auto;html=1;endArrow=none;endFill=0;" edge="1" parent="1" source="T2G4cAbRXpR7lpNc8CU2-6" target="T2G4cAbRXpR7lpNc8CU2-3">
          <mxGeometry relative="1" as="geometry" />
        </mxCell>
        <mxCell id="T2G4cAbRXpR7lpNc8CU2-6" value="Daftar Pakaian" style="ellipse;whiteSpace=wrap;html=1;align=center;" vertex="1" parent="1">
          <mxGeometry x="20" y="310" width="100" height="40" as="geometry" />
        </mxCell>
        <mxCell id="T2G4cAbRXpR7lpNc8CU2-37" style="edgeStyle=none;rounded=0;orthogonalLoop=1;jettySize=auto;html=1;endArrow=none;endFill=0;" edge="1" parent="1" source="T2G4cAbRXpR7lpNc8CU2-7" target="T2G4cAbRXpR7lpNc8CU2-3">
          <mxGeometry relative="1" as="geometry" />
        </mxCell>
        <mxCell id="T2G4cAbRXpR7lpNc8CU2-7" value="Tgl. Pengambilan" style="ellipse;whiteSpace=wrap;html=1;align=center;" vertex="1" parent="1">
          <mxGeometry x="120" y="350" width="100" height="40" as="geometry" />
        </mxCell>
        <mxCell id="T2G4cAbRXpR7lpNc8CU2-35" style="edgeStyle=none;rounded=0;orthogonalLoop=1;jettySize=auto;html=1;endArrow=none;endFill=0;" edge="1" parent="1" source="T2G4cAbRXpR7lpNc8CU2-11" target="T2G4cAbRXpR7lpNc8CU2-3">
          <mxGeometry relative="1" as="geometry" />
        </mxCell>
        <mxCell id="T2G4cAbRXpR7lpNc8CU2-11" value="No. Nota" style="ellipse;whiteSpace=wrap;html=1;align=center;fontStyle=4" vertex="1" parent="1">
          <mxGeometry x="10" y="260" width="100" height="40" as="geometry" />
        </mxCell>
        <mxCell id="T2G4cAbRXpR7lpNc8CU2-38" style="edgeStyle=none;rounded=0;orthogonalLoop=1;jettySize=auto;html=1;endArrow=none;endFill=0;" edge="1" parent="1" source="T2G4cAbRXpR7lpNc8CU2-13" target="T2G4cAbRXpR7lpNc8CU2-3">
          <mxGeometry relative="1" as="geometry" />
        </mxCell>
        <mxCell id="T2G4cAbRXpR7lpNc8CU2-13" value="Total Bayar" style="ellipse;whiteSpace=wrap;html=1;align=center;" vertex="1" parent="1">
          <mxGeometry x="240" y="350" width="100" height="40" as="geometry" />
        </mxCell>
        <mxCell id="T2G4cAbRXpR7lpNc8CU2-23" style="edgeStyle=none;rounded=0;orthogonalLoop=1;jettySize=auto;html=1;entryX=1;entryY=0.5;entryDx=0;entryDy=0;endArrow=none;endFill=0;" edge="1" parent="1" source="T2G4cAbRXpR7lpNc8CU2-14" target="T2G4cAbRXpR7lpNc8CU2-2">
          <mxGeometry relative="1" as="geometry" />
        </mxCell>
        <mxCell id="T2G4cAbRXpR7lpNc8CU2-14" value="Berat" style="ellipse;whiteSpace=wrap;html=1;align=center;" vertex="1" parent="1">
          <mxGeometry x="640" y="110" width="100" height="40" as="geometry" />
        </mxCell>
        <mxCell id="T2G4cAbRXpR7lpNc8CU2-15" value="Permintaan Khusus" style="ellipse;whiteSpace=wrap;html=1;align=center;" vertex="1" parent="1">
          <mxGeometry x="640" y="40" width="100" height="40" as="geometry" />
        </mxCell>
        <mxCell id="T2G4cAbRXpR7lpNc8CU2-16" value="No. Nota" style="ellipse;whiteSpace=wrap;html=1;align=center;" vertex="1" parent="1">
          <mxGeometry x="160" y="20" width="100" height="40" as="geometry" />
        </mxCell>
        <mxCell id="T2G4cAbRXpR7lpNc8CU2-21" style="edgeStyle=none;rounded=0;orthogonalLoop=1;jettySize=auto;html=1;exitX=0.5;exitY=1;exitDx=0;exitDy=0;entryX=0.68;entryY=0.05;entryDx=0;entryDy=0;entryPerimeter=0;endArrow=none;endFill=0;" edge="1" parent="1" source="T2G4cAbRXpR7lpNc8CU2-16" target="T2G4cAbRXpR7lpNc8CU2-1">
          <mxGeometry relative="1" as="geometry" />
        </mxCell>
        <mxCell id="T2G4cAbRXpR7lpNc8CU2-22" value="Id_Pakaian" style="ellipse;whiteSpace=wrap;html=1;align=center;fontStyle=4" vertex="1" parent="1">
          <mxGeometry x="510" y="20" width="100" height="40" as="geometry" />
        </mxCell>
        <mxCell id="T2G4cAbRXpR7lpNc8CU2-24" style="edgeStyle=none;rounded=0;orthogonalLoop=1;jettySize=auto;html=1;exitX=0;exitY=1;exitDx=0;exitDy=0;entryX=0.82;entryY=0;entryDx=0;entryDy=0;entryPerimeter=0;endArrow=none;endFill=0;" edge="1" parent="1" source="T2G4cAbRXpR7lpNc8CU2-15" target="T2G4cAbRXpR7lpNc8CU2-2">
          <mxGeometry relative="1" as="geometry" />
        </mxCell>
        <mxCell id="T2G4cAbRXpR7lpNc8CU2-25" style="edgeStyle=none;rounded=0;orthogonalLoop=1;jettySize=auto;html=1;exitX=0.5;exitY=1;exitDx=0;exitDy=0;entryX=0.57;entryY=0;entryDx=0;entryDy=0;entryPerimeter=0;endArrow=none;endFill=0;" edge="1" parent="1" source="T2G4cAbRXpR7lpNc8CU2-22" target="T2G4cAbRXpR7lpNc8CU2-2">
          <mxGeometry relative="1" as="geometry" />
        </mxCell>
        <mxCell id="T2G4cAbRXpR7lpNc8CU2-31" style="edgeStyle=none;rounded=0;orthogonalLoop=1;jettySize=auto;html=1;entryX=0;entryY=0.5;entryDx=0;entryDy=0;endArrow=ERoneToMany;endFill=0;" edge="1" parent="1" source="T2G4cAbRXpR7lpNc8CU2-26" target="T2G4cAbRXpR7lpNc8CU2-2">
          <mxGeometry relative="1" as="geometry" />
        </mxCell>
        <mxCell id="T2G4cAbRXpR7lpNc8CU2-26" value="Membawa" style="shape=rhombus;perimeter=rhombusPerimeter;whiteSpace=wrap;html=1;align=center;" vertex="1" parent="1">
          <mxGeometry x="330" y="90" width="120" height="60" as="geometry" />
        </mxCell>
        <mxCell id="T2G4cAbRXpR7lpNc8CU2-28" style="edgeStyle=none;rounded=0;orthogonalLoop=1;jettySize=auto;html=1;entryX=1;entryY=1;entryDx=0;entryDy=0;endArrow=none;endFill=0;" edge="1" parent="1" source="T2G4cAbRXpR7lpNc8CU2-27" target="T2G4cAbRXpR7lpNc8CU2-2">
          <mxGeometry relative="1" as="geometry" />
        </mxCell>
        <mxCell id="T2G4cAbRXpR7lpNc8CU2-27" value="No. Pelanggan" style="ellipse;whiteSpace=wrap;html=1;align=center;fontStyle=0" vertex="1" parent="1">
          <mxGeometry x="630" y="160" width="100" height="40" as="geometry" />
        </mxCell>
        <mxCell id="T2G4cAbRXpR7lpNc8CU2-33" style="edgeStyle=none;rounded=0;orthogonalLoop=1;jettySize=auto;html=1;entryX=0.5;entryY=1;entryDx=0;entryDy=0;endArrow=ERone;endFill=0;" edge="1" parent="1" source="T2G4cAbRXpR7lpNc8CU2-32" target="T2G4cAbRXpR7lpNc8CU2-1">
          <mxGeometry relative="1" as="geometry" />
        </mxCell>
        <mxCell id="T2G4cAbRXpR7lpNc8CU2-34" style="edgeStyle=none;rounded=0;orthogonalLoop=1;jettySize=auto;html=1;entryX=0.5;entryY=0;entryDx=0;entryDy=0;endArrow=ERoneToMany;endFill=0;" edge="1" parent="1" source="T2G4cAbRXpR7lpNc8CU2-32" target="T2G4cAbRXpR7lpNc8CU2-3">
          <mxGeometry relative="1" as="geometry" />
        </mxCell>
        <mxCell id="T2G4cAbRXpR7lpNc8CU2-32" value="Mendapatkan" style="shape=rhombus;perimeter=rhombusPerimeter;whiteSpace=wrap;html=1;align=center;" vertex="1" parent="1">
          <mxGeometry x="170" y="180" width="120" height="60" as="geometry" />
        </mxCell>
      </root>
    </mxGraphModel>
  </diagram>
</mxfile>
